<svg id="visual" viewBox="0 0 960 300" width="960" height="300" xmlns="http://www.w3.org/2000/svg" xmlns:xlink="http://www.w3.org/1999/xlink" version="1.1"><rect x="0" y="0" width="960" height="300" fill="#001220"></rect><path d="M0 76L16 75.7C32 75.3 64 74.7 96 74.7C128 74.7 160 75.3 192 77.3C224 79.3 256 82.7 288 86.5C320 90.3 352 94.7 384 99.2C416 103.7 448 108.3 480 106.3C512 104.3 544 95.7 576 90.7C608 85.7 640 84.3 672 78.8C704 73.3 736 63.7 768 62.7C800 61.7 832 69.3 864 69.5C896 69.7 928 62.3 944 58.7L960 55L960 301L944 301C928 301 896 301 864 301C832 301 800 301 768 301C736 301 704 301 672 301C640 301 608 301 576 301C544 301 512 301 480 301C448 301 416 301 384 301C352 301 320 301 288 301C256 301 224 301 192 301C160 301 128 301 96 301C64 301 32 301 16 301L0 301Z" fill="#ffc371"></path><path d="M0 139L16 136.7C32 134.3 64 129.7 96 124.7C128 119.7 160 114.3 192 109.8C224 105.3 256 101.7 288 100.5C320 99.3 352 100.7 384 106.8C416 113 448 124 480 124C512 124 544 113 576 109.8C608 106.7 640 111.3 672 113.5C704 115.7 736 115.3 768 112.3C800 109.3 832 103.7 864 107C896 110.3 928 122.7 944 128.8L960 135L960 301L944 301C928 301 896 301 864 301C832 301 800 301 768 301C736 301 704 301 672 301C640 301 608 301 576 301C544 301 512 301 480 301C448 301 416 301 384 301C352 301 320 301 288 301C256 301 224 301 192 301C160 301 128 301 96 301C64 301 32 301 16 301L0 301Z" fill="#ffb369"></path><path d="M0 141L16 143C32 145 64 149 96 152.7C128 156.3 160 159.7 192 157.8C224 156 256 149 288 147.5C320 146 352 150 384 148.3C416 146.7 448 139.3 480 137C512 134.7 544 137.3 576 143.8C608 150.3 640 160.7 672 164.2C704 167.7 736 164.3 768 155.7C800 147 832 133 864 126.3C896 119.7 928 120.3 944 120.7L960 121L960 301L944 301C928 301 896 301 864 301C832 301 800 301 768 301C736 301 704 301 672 301C640 301 608 301 576 301C544 301 512 301 480 301C448 301 416 301 384 301C352 301 320 301 288 301C256 301 224 301 192 301C160 301 128 301 96 301C64 301 32 301 16 301L0 301Z" fill="#ffa364"></path><path d="M0 171L16 167.7C32 164.3 64 157.7 96 154.5C128 151.3 160 151.7 192 159.3C224 167 256 182 288 187.7C320 193.3 352 189.7 384 187.2C416 184.7 448 183.3 480 178.5C512 173.7 544 165.3 576 159.8C608 154.3 640 151.7 672 150.7C704 149.7 736 150.3 768 153.3C800 156.3 832 161.7 864 167.5C896 173.3 928 179.7 944 182.8L960 186L960 301L944 301C928 301 896 301 864 301C832 301 800 301 768 301C736 301 704 301 672 301C640 301 608 301 576 301C544 301 512 301 480 301C448 301 416 301 384 301C352 301 320 301 288 301C256 301 224 301 192 301C160 301 128 301 96 301C64 301 32 301 16 301L0 301Z" fill="#ff9362"></path><path d="M0 207L16 207.8C32 208.7 64 210.3 96 207.3C128 204.3 160 196.7 192 198.7C224 200.7 256 212.3 288 218.5C320 224.7 352 225.3 384 220C416 214.7 448 203.3 480 196.3C512 189.3 544 186.7 576 192C608 197.3 640 210.7 672 211.5C704 212.3 736 200.7 768 196.2C800 191.7 832 194.3 864 198.8C896 203.3 928 209.7 944 212.8L960 216L960 301L944 301C928 301 896 301 864 301C832 301 800 301 768 301C736 301 704 301 672 301C640 301 608 301 576 301C544 301 512 301 480 301C448 301 416 301 384 301C352 301 320 301 288 301C256 301 224 301 192 301C160 301 128 301 96 301C64 301 32 301 16 301L0 301Z" fill="#ff8263"></path><path d="M0 238L16 238.8C32 239.7 64 241.3 96 241C128 240.7 160 238.3 192 239.2C224 240 256 244 288 246.7C320 249.3 352 250.7 384 251.5C416 252.3 448 252.7 480 250.8C512 249 544 245 576 239.3C608 233.7 640 226.3 672 226C704 225.7 736 232.3 768 237.2C800 242 832 245 864 242.7C896 240.3 928 232.7 944 228.8L960 225L960 301L944 301C928 301 896 301 864 301C832 301 800 301 768 301C736 301 704 301 672 301C640 301 608 301 576 301C544 301 512 301 480 301C448 301 416 301 384 301C352 301 320 301 288 301C256 301 224 301 192 301C160 301 128 301 96 301C64 301 32 301 16 301L0 301Z" fill="#ff7167"></path><path d="M0 268L16 265.8C32 263.7 64 259.3 96 259.2C128 259 160 263 192 264.2C224 265.3 256 263.7 288 263.8C320 264 352 266 384 264.2C416 262.3 448 256.7 480 258.3C512 260 544 269 576 268.8C608 268.7 640 259.3 672 258.7C704 258 736 266 768 267.8C800 269.7 832 265.3 864 261C896 256.7 928 252.3 944 250.2L960 248L960 301L944 301C928 301 896 301 864 301C832 301 800 301 768 301C736 301 704 301 672 301C640 301 608 301 576 301C544 301 512 301 480 301C448 301 416 301 384 301C352 301 320 301 288 301C256 301 224 301 192 301C160 301 128 301 96 301C64 301 32 301 16 301L0 301Z" fill="#ff5f6d"></path></svg>