<svg version="1.1" xmlns:xlink="http://www.w3.org/1999/xlink" xmlns="http://www.w3.org/2000/svg" viewBox="0 170.6070287539936 960 126.51757188498402" id="visual" style="max-height: 500px" width="960" height="126.51757188498402"><rect fill="#001220" height="300" width="960" y="0" x="0"/><path fill="#ffc371" d="M0 195L13.3 195C26.7 195 53.3 195 80 195.2C106.7 195.3 133.3 195.7 160 196C186.7 196.3 213.3 196.7 240 196.7C266.7 196.7 293.3 196.3 320 200.2C346.7 204 373.3 212 400 216.7C426.7 221.3 453.3 222.7 480 218.8C506.7 215 533.3 206 560 200C586.7 194 613.3 191 640 191.3C666.7 191.7 693.3 195.3 720 195.3C746.7 195.3 773.3 191.7 800 195.7C826.7 199.7 853.3 211.3 880 213.8C906.7 216.3 933.3 209.7 946.7 206.3L960 203L960 301L946.7 301C933.3 301 906.7 301 880 301C853.3 301 826.7 301 800 301C773.3 301 746.7 301 720 301C693.3 301 666.7 301 640 301C613.3 301 586.7 301 560 301C533.3 301 506.7 301 480 301C453.3 301 426.7 301 400 301C373.3 301 346.7 301 320 301C293.3 301 266.7 301 240 301C213.3 301 186.7 301 160 301C133.3 301 106.7 301 80 301C53.3 301 26.7 301 13.3 301L0 301Z"/><path fill="#ffab66" d="M0 231L13.3 229.8C26.7 228.7 53.3 226.3 80 222.5C106.7 218.7 133.3 213.3 160 212.5C186.7 211.7 213.3 215.3 240 220.2C266.7 225 293.3 231 320 233.5C346.7 236 373.3 235 400 235.2C426.7 235.3 453.3 236.7 480 237C506.7 237.3 533.3 236.7 560 233.2C586.7 229.7 613.3 223.3 640 219.2C666.7 215 693.3 213 720 213C746.7 213 773.3 215 800 218C826.7 221 853.3 225 880 228.8C906.7 232.7 933.3 236.3 946.7 238.2L960 240L960 301L946.7 301C933.3 301 906.7 301 880 301C853.3 301 826.7 301 800 301C773.3 301 746.7 301 720 301C693.3 301 666.7 301 640 301C613.3 301 586.7 301 560 301C533.3 301 506.7 301 480 301C453.3 301 426.7 301 400 301C373.3 301 346.7 301 320 301C293.3 301 266.7 301 240 301C213.3 301 186.7 301 160 301C133.3 301 106.7 301 80 301C53.3 301 26.7 301 13.3 301L0 301Z"/><path fill="#ff9362" d="M0 246L13.3 245C26.7 244 53.3 242 80 243C106.7 244 133.3 248 160 248.3C186.7 248.7 213.3 245.3 240 241.3C266.7 237.3 293.3 232.7 320 235.3C346.7 238 373.3 248 400 249.8C426.7 251.7 453.3 245.3 480 240.8C506.7 236.3 533.3 233.7 560 232.3C586.7 231 613.3 231 640 231.3C666.7 231.7 693.3 232.3 720 232.3C746.7 232.3 773.3 231.7 800 232.5C826.7 233.3 853.3 235.7 880 236.8C906.7 238 933.3 238 946.7 238L960 238L960 301L946.7 301C933.3 301 906.7 301 880 301C853.3 301 826.7 301 800 301C773.3 301 746.7 301 720 301C693.3 301 666.7 301 640 301C613.3 301 586.7 301 560 301C533.3 301 506.7 301 480 301C453.3 301 426.7 301 400 301C373.3 301 346.7 301 320 301C293.3 301 266.7 301 240 301C213.3 301 186.7 301 160 301C133.3 301 106.7 301 80 301C53.3 301 26.7 301 13.3 301L0 301Z"/><path fill="#ff7a64" d="M0 248L13.3 250.8C26.7 253.7 53.3 259.3 80 263.2C106.7 267 133.3 269 160 269.7C186.7 270.3 213.3 269.7 240 267.3C266.7 265 293.3 261 320 261.5C346.7 262 373.3 267 400 265.7C426.7 264.3 453.3 256.7 480 254.2C506.7 251.7 533.3 254.3 560 258C586.7 261.7 613.3 266.3 640 266C666.7 265.7 693.3 260.3 720 260.2C746.7 260 773.3 265 800 265.5C826.7 266 853.3 262 880 260C906.7 258 933.3 258 946.7 258L960 258L960 301L946.7 301C933.3 301 906.7 301 880 301C853.3 301 826.7 301 800 301C773.3 301 746.7 301 720 301C693.3 301 666.7 301 640 301C613.3 301 586.7 301 560 301C533.3 301 506.7 301 480 301C453.3 301 426.7 301 400 301C373.3 301 346.7 301 320 301C293.3 301 266.7 301 240 301C213.3 301 186.7 301 160 301C133.3 301 106.7 301 80 301C53.3 301 26.7 301 13.3 301L0 301Z"/><path fill="#ff5f6d" d="M0 290L13.3 288.8C26.7 287.7 53.3 285.3 80 285.3C106.7 285.3 133.3 287.7 160 288.3C186.7 289 213.3 288 240 285.8C266.7 283.7 293.3 280.3 320 278.8C346.7 277.3 373.3 277.7 400 279.8C426.7 282 453.3 286 480 284C506.7 282 533.3 274 560 274.5C586.7 275 613.3 284 640 287.7C666.7 291.3 693.3 289.7 720 285.2C746.7 280.7 773.3 273.3 800 271.5C826.7 269.7 853.3 273.3 880 277.5C906.7 281.7 933.3 286.3 946.7 288.7L960 291L960 301L946.7 301C933.3 301 906.7 301 880 301C853.3 301 826.7 301 800 301C773.3 301 746.7 301 720 301C693.3 301 666.7 301 640 301C613.3 301 586.7 301 560 301C533.3 301 506.7 301 480 301C453.3 301 426.7 301 400 301C373.3 301 346.7 301 320 301C293.3 301 266.7 301 240 301C213.3 301 186.7 301 160 301C133.3 301 106.7 301 80 301C53.3 301 26.7 301 13.3 301L0 301Z"/></svg>