<svg version="1.1" xmlns:xlink="http://www.w3.org/1999/xlink" xmlns="http://www.w3.org/2000/svg" viewBox="0 0 960 114.05750798722045" id="visual" style="max-height: 500px" width="960" height="114.05750798722045"><rect fill="#001220" height="300" width="960" y="0" x="0"/><path fill="#ffc371" d="M0 103L13.3 103C26.7 103 53.3 103 80 102.8C106.7 102.7 133.3 102.3 160 102C186.7 101.7 213.3 101.3 240 101.3C266.7 101.3 293.3 101.7 320 97.8C346.7 94 373.3 86 400 81.3C426.7 76.7 453.3 75.3 480 79.2C506.7 83 533.3 92 560 98C586.7 104 613.3 107 640 106.7C666.7 106.3 693.3 102.7 720 102.7C746.7 102.7 773.3 106.3 800 102.3C826.7 98.3 853.3 86.7 880 84.2C906.7 81.7 933.3 88.3 946.7 91.7L960 95L960 0L946.7 0C933.3 0 906.7 0 880 0C853.3 0 826.7 0 800 0C773.3 0 746.7 0 720 0C693.3 0 666.7 0 640 0C613.3 0 586.7 0 560 0C533.3 0 506.7 0 480 0C453.3 0 426.7 0 400 0C373.3 0 346.7 0 320 0C293.3 0 266.7 0 240 0C213.3 0 186.7 0 160 0C133.3 0 106.7 0 80 0C53.3 0 26.7 0 13.3 0L0 0Z"/><path fill="#ffab66" d="M0 67L13.3 68.2C26.7 69.3 53.3 71.7 80 75.5C106.7 79.3 133.3 84.7 160 85.5C186.7 86.3 213.3 82.7 240 77.8C266.7 73 293.3 67 320 64.5C346.7 62 373.3 63 400 62.8C426.7 62.7 453.3 61.3 480 61C506.7 60.7 533.3 61.3 560 64.8C586.7 68.3 613.3 74.7 640 78.8C666.7 83 693.3 85 720 85C746.7 85 773.3 83 800 80C826.7 77 853.3 73 880 69.2C906.7 65.3 933.3 61.7 946.7 59.8L960 58L960 0L946.7 0C933.3 0 906.7 0 880 0C853.3 0 826.7 0 800 0C773.3 0 746.7 0 720 0C693.3 0 666.7 0 640 0C613.3 0 586.7 0 560 0C533.3 0 506.7 0 480 0C453.3 0 426.7 0 400 0C373.3 0 346.7 0 320 0C293.3 0 266.7 0 240 0C213.3 0 186.7 0 160 0C133.3 0 106.7 0 80 0C53.3 0 26.7 0 13.3 0L0 0Z"/><path fill="#ff9362" d="M0 52L13.3 53C26.7 54 53.3 56 80 55C106.7 54 133.3 50 160 49.7C186.7 49.3 213.3 52.7 240 56.7C266.7 60.7 293.3 65.3 320 62.7C346.7 60 373.3 50 400 48.2C426.7 46.3 453.3 52.7 480 57.2C506.7 61.7 533.3 64.3 560 65.7C586.7 67 613.3 67 640 66.7C666.7 66.3 693.3 65.7 720 65.7C746.7 65.7 773.3 66.3 800 65.5C826.7 64.7 853.3 62.3 880 61.2C906.7 60 933.3 60 946.7 60L960 60L960 0L946.7 0C933.3 0 906.7 0 880 0C853.3 0 826.7 0 800 0C773.3 0 746.7 0 720 0C693.3 0 666.7 0 640 0C613.3 0 586.7 0 560 0C533.3 0 506.7 0 480 0C453.3 0 426.7 0 400 0C373.3 0 346.7 0 320 0C293.3 0 266.7 0 240 0C213.3 0 186.7 0 160 0C133.3 0 106.7 0 80 0C53.3 0 26.7 0 13.3 0L0 0Z"/><path fill="#ff7a64" d="M0 50L13.3 47.2C26.7 44.3 53.3 38.7 80 34.8C106.7 31 133.3 29 160 28.3C186.7 27.7 213.3 28.3 240 30.7C266.7 33 293.3 37 320 36.5C346.7 36 373.3 31 400 32.3C426.7 33.7 453.3 41.3 480 43.8C506.7 46.3 533.3 43.7 560 40C586.7 36.3 613.3 31.7 640 32C666.7 32.3 693.3 37.7 720 37.8C746.7 38 773.3 33 800 32.5C826.7 32 853.3 36 880 38C906.7 40 933.3 40 946.7 40L960 40L960 0L946.7 0C933.3 0 906.7 0 880 0C853.3 0 826.7 0 800 0C773.3 0 746.7 0 720 0C693.3 0 666.7 0 640 0C613.3 0 586.7 0 560 0C533.3 0 506.7 0 480 0C453.3 0 426.7 0 400 0C373.3 0 346.7 0 320 0C293.3 0 266.7 0 240 0C213.3 0 186.7 0 160 0C133.3 0 106.7 0 80 0C53.3 0 26.7 0 13.3 0L0 0Z"/><path fill="#ff5f6d" d="M0 8L13.3 9.2C26.7 10.3 53.3 12.7 80 12.7C106.7 12.7 133.3 10.3 160 9.7C186.7 9 213.3 10 240 12.2C266.7 14.3 293.3 17.7 320 19.2C346.7 20.7 373.3 20.3 400 18.2C426.7 16 453.3 12 480 14C506.7 16 533.3 24 560 23.5C586.7 23 613.3 14 640 10.3C666.7 6.7 693.3 8.3 720 12.8C746.7 17.3 773.3 24.7 800 26.5C826.7 28.3 853.3 24.7 880 20.5C906.7 16.3 933.3 11.7 946.7 9.3L960 7L960 0L946.7 0C933.3 0 906.7 0 880 0C853.3 0 826.7 0 800 0C773.3 0 746.7 0 720 0C693.3 0 666.7 0 640 0C613.3 0 586.7 0 560 0C533.3 0 506.7 0 480 0C453.3 0 426.7 0 400 0C373.3 0 346.7 0 320 0C293.3 0 266.7 0 240 0C213.3 0 186.7 0 160 0C133.3 0 106.7 0 80 0C53.3 0 26.7 0 13.3 0L0 0Z"/></svg>